<svg xmlns="http://www.w3.org/2000/svg" xmlns:xlink="http://www.w3.org/1999/xlink" width="500" zoomAndPan="magnify" viewBox="0 0 375 374.999991" height="500" preserveAspectRatio="xMidYMid meet" version="1.0"><defs><g/><clipPath id="e32ea50d85"><rect x="0" width="108" y="0" height="44"/></clipPath><clipPath id="0fd2532bbe"><rect x="0" width="112" y="0" height="44"/></clipPath></defs><path fill="#f68712" d="M 149.546875 55.410156 C 144.820312 58.386719 138.710938 61.242188 130.980469 63.820312 C 113.828125 69.542969 95.753906 66.6875 78.582031 71.257812 C 74.242188 72.417969 67.785156 75.503906 63.867188 79.542969 C 63.867188 79.542969 75.84375 56.820312 110.746094 43.25 C 113.894531 42.023438 117.230469 40.871094 120.761719 39.820312 C 142.199219 33.429688 136.160156 24.433594 126.78125 27.078125 C 126.78125 27.078125 134.546875 21.605469 145.566406 22.019531 C 162.167969 22.652344 173.246094 40.511719 149.546875 55.410156 " fill-opacity="1" fill-rule="nonzero"/><path fill="#f68712" d="M 234.816406 55.550781 C 231.363281 70.097656 220.789062 82.875 208.84375 93.136719 C 195.625 104.503906 180.722656 112.785156 171.992188 116.960938 C 115.015625 144.234375 57.835938 134.011719 51.050781 161.820312 C 51.050781 161.820312 37.492188 136.8125 69.476562 119.097656 C 87.089844 109.34375 96.960938 104.300781 138.078125 89.378906 C 150.5 84.867188 165.65625 79.367188 179.074219 70.554688 C 188.214844 64.546875 196.550781 57.007812 202.664062 47.195312 C 213.238281 30.210938 199.890625 13.351562 175.734375 11.925781 C 212.527344 9.867188 241.0625 29.222656 234.816406 55.550781 " fill-opacity="1" fill-rule="nonzero"/><path fill="#3871c1" d="M 255.695312 156.503906 C 243.835938 165.664062 229.183594 174.3125 211.570312 182.105469 C 143.902344 212.046875 87.6875 205.492188 74.597656 234.125 C 74.597656 234.125 56.683594 196.574219 119.136719 176.222656 C 174.054688 158.335938 211.863281 141.113281 236.707031 124.714844 C 290.894531 88.953125 283.449219 57.0625 257.40625 30.507812 C 258.960938 31.441406 260.449219 32.359375 261.792969 33.21875 C 305.917969 64.183594 308.8125 115.492188 255.695312 156.503906 " fill-opacity="1" fill-rule="nonzero"/><path fill="#40b93c" d="M 309.976562 183.382812 C 302.253906 196.878906 290.9375 208.160156 277.390625 217.703125 C 261.136719 229.15625 241.652344 238.113281 221.285156 245.414062 C 194.53125 255 128.820312 262.980469 126.699219 278.308594 C 126.699219 278.308594 118.324219 262.714844 148.046875 247.523438 C 182.167969 230.085938 218.089844 216.472656 251.960938 198.503906 C 255.269531 196.75 261.613281 193.550781 269.066406 188.808594 C 292.222656 174.09375 326.085938 144.574219 312.875 97.738281 C 313.363281 98.472656 337.496094 135.296875 309.976562 183.382812 " fill-opacity="1" fill-rule="nonzero"/><path fill="#40b93c" d="M 312.441406 197.570312 C 312.441406 197.570312 311.074219 217.753906 282.605469 243.804688 C 282.53125 243.878906 282.453125 243.949219 282.375 244.019531 C 267.132812 257.917969 248.765625 267.960938 233.097656 274.546875 C 208.972656 284.6875 187.710938 284.863281 187.492188 284.933594 C 214.085938 276.605469 252.925781 254.621094 280.585938 232.511719 C 296.101562 220.105469 308.105469 207.660156 312.441406 197.570312 " fill-opacity="1" fill-rule="nonzero"/><path fill="#fbc108" d="M 149.546875 55.410156 C 136.058594 49.789062 122.882812 45.910156 110.746094 43.25 C 113.894531 42.023438 117.230469 40.871094 120.761719 39.820312 C 142.199219 33.429688 136.160156 24.433594 126.78125 27.078125 C 126.78125 27.078125 134.546875 21.605469 145.566406 22.019531 C 162.167969 22.652344 173.246094 40.511719 149.546875 55.410156 " fill-opacity="1" fill-rule="nonzero"/><path fill="#fbc108" d="M 234.816406 55.550781 C 231.363281 70.097656 220.789062 82.875 208.84375 93.136719 C 199.210938 84.289062 189.195312 76.832031 179.074219 70.554688 C 188.214844 64.546875 196.550781 57.007812 202.664062 47.195312 C 213.238281 30.210938 199.890625 13.351562 175.734375 11.925781 C 212.527344 9.867188 241.0625 29.222656 234.816406 55.550781 " fill-opacity="1" fill-rule="nonzero"/><path fill="#00adef" d="M 255.695312 156.503906 C 249.90625 144.800781 243.53125 134.238281 236.707031 124.714844 C 290.894531 88.953125 283.449219 57.0625 257.40625 30.507812 C 258.960938 31.441406 260.449219 32.359375 261.792969 33.21875 C 305.917969 64.183594 308.8125 115.492188 255.695312 156.503906 " fill-opacity="1" fill-rule="nonzero"/><path fill="#80cc28" d="M 312.441406 197.570312 C 312.441406 197.570312 311.074219 217.753906 282.605469 243.804688 C 281.980469 239.96875 281.304688 236.203125 280.585938 232.511719 C 296.101562 220.105469 308.105469 207.660156 312.441406 197.570312 " fill-opacity="1" fill-rule="nonzero"/><path fill="#80cc28" d="M 277.390625 217.703125 C 274.953125 207.507812 272.167969 197.886719 269.066406 188.808594 C 292.222656 174.09375 326.085938 144.574219 312.875 97.738281 C 313.363281 98.472656 337.496094 135.296875 309.976562 183.382812 C 302.253906 196.878906 290.9375 208.160156 277.390625 217.703125 " fill-opacity="1" fill-rule="nonzero"/><g transform="matrix(1, 0, 0, 1, 77, 283)"><g clip-path="url(#e32ea50d85)"><g fill="#ff751f" fill-opacity="1"><g transform="translate(1.068565, 34.40856)"><g><path d="M 19.09375 -6.453125 L 5.625 -6.453125 L 2.734375 0 L 0.0625 0 L 11.109375 -24.15625 L 13.640625 -24.15625 L 24.671875 0 L 21.984375 0 Z M 18.15625 -8.53125 L 12.359375 -21.5 L 6.5625 -8.53125 Z M 18.15625 -8.53125 "/></g></g></g><g fill="#ff751f" fill-opacity="1"><g transform="translate(24.0139, 34.40856)"><g><path d="M 3.9375 -24.15625 L 13.765625 -24.15625 C 16.328125 -24.15625 18.582031 -23.644531 20.53125 -22.625 C 22.488281 -21.601562 24.007812 -20.175781 25.09375 -18.34375 C 26.175781 -16.507812 26.71875 -14.421875 26.71875 -12.078125 C 26.71875 -9.734375 26.175781 -7.644531 25.09375 -5.8125 C 24.007812 -3.988281 22.488281 -2.5625 20.53125 -1.53125 C 18.582031 -0.507812 16.328125 0 13.765625 0 L 3.9375 0 Z M 13.640625 -2.203125 C 15.753906 -2.203125 17.601562 -2.625 19.1875 -3.46875 C 20.78125 -4.3125 22.015625 -5.472656 22.890625 -6.953125 C 23.765625 -8.441406 24.203125 -10.148438 24.203125 -12.078125 C 24.203125 -14.015625 23.765625 -15.722656 22.890625 -17.203125 C 22.015625 -18.691406 20.78125 -19.851562 19.1875 -20.6875 C 17.601562 -21.53125 15.753906 -21.953125 13.640625 -21.953125 L 6.484375 -21.953125 L 6.484375 -2.203125 Z M 13.640625 -2.203125 "/></g></g></g><g fill="#ff751f" fill-opacity="1"><g transform="translate(50.720296, 34.40856)"><g><path d="M 3.9375 -24.15625 L 13.765625 -24.15625 C 16.328125 -24.15625 18.582031 -23.644531 20.53125 -22.625 C 22.488281 -21.601562 24.007812 -20.175781 25.09375 -18.34375 C 26.175781 -16.507812 26.71875 -14.421875 26.71875 -12.078125 C 26.71875 -9.734375 26.175781 -7.644531 25.09375 -5.8125 C 24.007812 -3.988281 22.488281 -2.5625 20.53125 -1.53125 C 18.582031 -0.507812 16.328125 0 13.765625 0 L 3.9375 0 Z M 13.640625 -2.203125 C 15.753906 -2.203125 17.601562 -2.625 19.1875 -3.46875 C 20.78125 -4.3125 22.015625 -5.472656 22.890625 -6.953125 C 23.765625 -8.441406 24.203125 -10.148438 24.203125 -12.078125 C 24.203125 -14.015625 23.765625 -15.722656 22.890625 -17.203125 C 22.015625 -18.691406 20.78125 -19.851562 19.1875 -20.6875 C 17.601562 -21.53125 15.753906 -21.953125 13.640625 -21.953125 L 6.484375 -21.953125 L 6.484375 -2.203125 Z M 13.640625 -2.203125 "/></g></g></g><g fill="#ff751f" fill-opacity="1"><g transform="translate(77.426692, 34.40856)"><g><path d="M 3.9375 -24.15625 L 6.484375 -24.15625 L 6.484375 0 L 3.9375 0 Z M 3.9375 -24.15625 "/></g></g></g><g fill="#ff751f" fill-opacity="1"><g transform="translate(86.052422, 34.40856)"><g><path d="M 10.59375 0.203125 C 8.800781 0.203125 7.082031 -0.0820312 5.4375 -0.65625 C 3.789062 -1.226562 2.519531 -1.988281 1.625 -2.9375 L 2.625 -4.90625 C 3.5 -4.03125 4.660156 -3.320312 6.109375 -2.78125 C 7.554688 -2.238281 9.050781 -1.96875 10.59375 -1.96875 C 12.757812 -1.96875 14.378906 -2.363281 15.453125 -3.15625 C 16.535156 -3.945312 17.078125 -4.976562 17.078125 -6.25 C 17.078125 -7.21875 16.785156 -7.988281 16.203125 -8.5625 C 15.617188 -9.132812 14.898438 -9.578125 14.046875 -9.890625 C 13.191406 -10.203125 12.007812 -10.539062 10.5 -10.90625 C 8.675781 -11.363281 7.222656 -11.804688 6.140625 -12.234375 C 5.054688 -12.660156 4.128906 -13.3125 3.359375 -14.1875 C 2.585938 -15.0625 2.203125 -16.242188 2.203125 -17.734375 C 2.203125 -18.960938 2.523438 -20.078125 3.171875 -21.078125 C 3.816406 -22.078125 4.804688 -22.875 6.140625 -23.46875 C 7.472656 -24.070312 9.128906 -24.375 11.109375 -24.375 C 12.492188 -24.375 13.847656 -24.179688 15.171875 -23.796875 C 16.492188 -23.421875 17.640625 -22.898438 18.609375 -22.234375 L 17.734375 -20.1875 C 16.722656 -20.851562 15.640625 -21.351562 14.484375 -21.6875 C 13.335938 -22.019531 12.210938 -22.1875 11.109375 -22.1875 C 8.992188 -22.1875 7.398438 -21.78125 6.328125 -20.96875 C 5.265625 -20.15625 4.734375 -19.101562 4.734375 -17.8125 C 4.734375 -16.84375 5.023438 -16.0625 5.609375 -15.46875 C 6.191406 -14.882812 6.925781 -14.4375 7.8125 -14.125 C 8.695312 -13.820312 9.890625 -13.484375 11.390625 -13.109375 C 13.160156 -12.671875 14.59375 -12.238281 15.6875 -11.8125 C 16.78125 -11.394531 17.707031 -10.753906 18.46875 -9.890625 C 19.226562 -9.023438 19.609375 -7.859375 19.609375 -6.390625 C 19.609375 -5.171875 19.28125 -4.054688 18.625 -3.046875 C 17.96875 -2.046875 16.957031 -1.253906 15.59375 -0.671875 C 14.238281 -0.0859375 12.570312 0.203125 10.59375 0.203125 Z M 10.59375 0.203125 "/></g></g></g></g></g><g fill="#00bf63" fill-opacity="1"><g transform="translate(121.285565, 336.569303)"><g><path d="M 12 0 L 11.984375 -7.546875 L 8.234375 -1.296875 L 7.296875 -1.296875 L 3.546875 -7.453125 L 3.546875 0 L 1.53125 0 L 1.53125 -11.390625 L 3.265625 -11.390625 L 7.796875 -3.84375 L 12.25 -11.390625 L 13.984375 -11.390625 L 14 0 Z M 12 0 "/></g></g></g><g fill="#00bf63" fill-opacity="1"><g transform="translate(146.683505, 336.569303)"><g><path d="M 1.53125 -11.390625 L 3.640625 -11.390625 L 3.640625 0 L 1.53125 0 Z M 1.53125 -11.390625 "/></g></g></g><g fill="#00bf63" fill-opacity="1"><g transform="translate(161.729006, 336.569303)"><g><path d="M 5.0625 0.15625 C 4.1875 0.15625 3.335938 0.03125 2.515625 -0.21875 C 1.691406 -0.46875 1.039062 -0.796875 0.5625 -1.203125 L 1.296875 -2.84375 C 1.765625 -2.476562 2.335938 -2.175781 3.015625 -1.9375 C 3.691406 -1.707031 4.375 -1.59375 5.0625 -1.59375 C 5.90625 -1.59375 6.535156 -1.726562 6.953125 -2 C 7.378906 -2.269531 7.59375 -2.628906 7.59375 -3.078125 C 7.59375 -3.398438 7.472656 -3.664062 7.234375 -3.875 C 7.003906 -4.09375 6.707031 -4.257812 6.34375 -4.375 C 5.988281 -4.5 5.503906 -4.632812 4.890625 -4.78125 C 4.015625 -4.988281 3.304688 -5.195312 2.765625 -5.40625 C 2.234375 -5.613281 1.773438 -5.9375 1.390625 -6.375 C 1.003906 -6.8125 0.8125 -7.40625 0.8125 -8.15625 C 0.8125 -8.78125 0.984375 -9.347656 1.328125 -9.859375 C 1.671875 -10.378906 2.1875 -10.789062 2.875 -11.09375 C 3.5625 -11.40625 4.40625 -11.5625 5.40625 -11.5625 C 6.101562 -11.5625 6.785156 -11.472656 7.453125 -11.296875 C 8.128906 -11.117188 8.710938 -10.867188 9.203125 -10.546875 L 8.53125 -8.90625 C 8.03125 -9.195312 7.507812 -9.414062 6.96875 -9.5625 C 6.425781 -9.71875 5.898438 -9.796875 5.390625 -9.796875 C 4.554688 -9.796875 3.9375 -9.65625 3.53125 -9.375 C 3.125 -9.09375 2.921875 -8.71875 2.921875 -8.25 C 2.921875 -7.925781 3.035156 -7.660156 3.265625 -7.453125 C 3.492188 -7.242188 3.785156 -7.082031 4.140625 -6.96875 C 4.503906 -6.851562 4.992188 -6.71875 5.609375 -6.5625 C 6.460938 -6.363281 7.160156 -6.160156 7.703125 -5.953125 C 8.242188 -5.742188 8.707031 -5.421875 9.09375 -4.984375 C 9.476562 -4.546875 9.671875 -3.957031 9.671875 -3.21875 C 9.671875 -2.59375 9.5 -2.023438 9.15625 -1.515625 C 8.8125 -1.003906 8.289062 -0.597656 7.59375 -0.296875 C 6.90625 0.00390625 6.0625 0.15625 5.0625 0.15625 Z M 5.0625 0.15625 "/></g></g></g><g fill="#00bf63" fill-opacity="1"><g transform="translate(181.820504, 336.569303)"><g><path d="M 5.0625 0.15625 C 4.1875 0.15625 3.335938 0.03125 2.515625 -0.21875 C 1.691406 -0.46875 1.039062 -0.796875 0.5625 -1.203125 L 1.296875 -2.84375 C 1.765625 -2.476562 2.335938 -2.175781 3.015625 -1.9375 C 3.691406 -1.707031 4.375 -1.59375 5.0625 -1.59375 C 5.90625 -1.59375 6.535156 -1.726562 6.953125 -2 C 7.378906 -2.269531 7.59375 -2.628906 7.59375 -3.078125 C 7.59375 -3.398438 7.472656 -3.664062 7.234375 -3.875 C 7.003906 -4.09375 6.707031 -4.257812 6.34375 -4.375 C 5.988281 -4.5 5.503906 -4.632812 4.890625 -4.78125 C 4.015625 -4.988281 3.304688 -5.195312 2.765625 -5.40625 C 2.234375 -5.613281 1.773438 -5.9375 1.390625 -6.375 C 1.003906 -6.8125 0.8125 -7.40625 0.8125 -8.15625 C 0.8125 -8.78125 0.984375 -9.347656 1.328125 -9.859375 C 1.671875 -10.378906 2.1875 -10.789062 2.875 -11.09375 C 3.5625 -11.40625 4.40625 -11.5625 5.40625 -11.5625 C 6.101562 -11.5625 6.785156 -11.472656 7.453125 -11.296875 C 8.128906 -11.117188 8.710938 -10.867188 9.203125 -10.546875 L 8.53125 -8.90625 C 8.03125 -9.195312 7.507812 -9.414062 6.96875 -9.5625 C 6.425781 -9.71875 5.898438 -9.796875 5.390625 -9.796875 C 4.554688 -9.796875 3.9375 -9.65625 3.53125 -9.375 C 3.125 -9.09375 2.921875 -8.71875 2.921875 -8.25 C 2.921875 -7.925781 3.035156 -7.660156 3.265625 -7.453125 C 3.492188 -7.242188 3.785156 -7.082031 4.140625 -6.96875 C 4.503906 -6.851562 4.992188 -6.71875 5.609375 -6.5625 C 6.460938 -6.363281 7.160156 -6.160156 7.703125 -5.953125 C 8.242188 -5.742188 8.707031 -5.421875 9.09375 -4.984375 C 9.476562 -4.546875 9.671875 -3.957031 9.671875 -3.21875 C 9.671875 -2.59375 9.5 -2.023438 9.15625 -1.515625 C 8.8125 -1.003906 8.289062 -0.597656 7.59375 -0.296875 C 6.90625 0.00390625 6.0625 0.15625 5.0625 0.15625 Z M 5.0625 0.15625 "/></g></g></g><g fill="#00bf63" fill-opacity="1"><g transform="translate(201.912002, 336.569303)"><g><path d="M 1.53125 -11.390625 L 3.640625 -11.390625 L 3.640625 0 L 1.53125 0 Z M 1.53125 -11.390625 "/></g></g></g><g fill="#00bf63" fill-opacity="1"><g transform="translate(216.957503, 336.569303)"><g><path d="M 6.859375 0.15625 C 5.691406 0.15625 4.640625 -0.09375 3.703125 -0.59375 C 2.773438 -1.09375 2.046875 -1.789062 1.515625 -2.6875 C 0.984375 -3.582031 0.71875 -4.585938 0.71875 -5.703125 C 0.71875 -6.804688 0.984375 -7.804688 1.515625 -8.703125 C 2.046875 -9.597656 2.773438 -10.296875 3.703125 -10.796875 C 4.640625 -11.304688 5.691406 -11.5625 6.859375 -11.5625 C 8.015625 -11.5625 9.054688 -11.304688 9.984375 -10.796875 C 10.921875 -10.296875 11.65625 -9.597656 12.1875 -8.703125 C 12.726562 -7.816406 13 -6.816406 13 -5.703125 C 13 -4.578125 12.726562 -3.566406 12.1875 -2.671875 C 11.65625 -1.785156 10.921875 -1.09375 9.984375 -0.59375 C 9.054688 -0.09375 8.015625 0.15625 6.859375 0.15625 Z M 6.859375 -1.6875 C 7.617188 -1.6875 8.300781 -1.859375 8.90625 -2.203125 C 9.507812 -2.546875 9.984375 -3.023438 10.328125 -3.640625 C 10.679688 -4.253906 10.859375 -4.941406 10.859375 -5.703125 C 10.859375 -6.460938 10.679688 -7.144531 10.328125 -7.75 C 9.984375 -8.363281 9.507812 -8.84375 8.90625 -9.1875 C 8.300781 -9.53125 7.617188 -9.703125 6.859375 -9.703125 C 6.097656 -9.703125 5.410156 -9.53125 4.796875 -9.1875 C 4.191406 -8.84375 3.710938 -8.363281 3.359375 -7.75 C 3.015625 -7.144531 2.84375 -6.460938 2.84375 -5.703125 C 2.84375 -4.941406 3.015625 -4.253906 3.359375 -3.640625 C 3.710938 -3.023438 4.191406 -2.546875 4.796875 -2.203125 C 5.410156 -1.859375 6.097656 -1.6875 6.859375 -1.6875 Z M 6.859375 -1.6875 "/></g></g></g><g fill="#00bf63" fill-opacity="1"><g transform="translate(240.516091, 336.569303)"><g><path d="M 11.65625 -11.390625 L 11.65625 0 L 9.921875 0 L 3.625 -7.71875 L 3.625 0 L 1.53125 0 L 1.53125 -11.390625 L 3.265625 -11.390625 L 9.5625 -3.671875 L 9.5625 -11.390625 Z M 11.65625 -11.390625 "/></g></g></g><g fill="#ff751f" fill-opacity="1"><g transform="translate(85.437911, 353.819302)"><g><path d="M 7.953125 -7.671875 L 7.953125 0 L 6.171875 0 L 6.171875 -3.140625 L 2.6875 -3.140625 L 2.6875 0 L 0.90625 0 L 0.90625 -7.671875 L 2.6875 -7.671875 L 2.6875 -4.65625 L 6.171875 -4.65625 L 6.171875 -7.671875 Z M 7.953125 -7.671875 "/></g></g></g><g fill="#ff751f" fill-opacity="1"><g transform="translate(96.001951, 353.819302)"><g><path d="M 4.625 0.125 C 3.832031 0.125 3.113281 -0.046875 2.46875 -0.390625 C 1.832031 -0.734375 1.332031 -1.203125 0.96875 -1.796875 C 0.601562 -2.398438 0.421875 -3.082031 0.421875 -3.84375 C 0.421875 -4.59375 0.601562 -5.269531 0.96875 -5.875 C 1.332031 -6.476562 1.832031 -6.953125 2.46875 -7.296875 C 3.113281 -7.640625 3.832031 -7.8125 4.625 -7.8125 C 5.425781 -7.8125 6.144531 -7.640625 6.78125 -7.296875 C 7.414062 -6.953125 7.914062 -6.476562 8.28125 -5.875 C 8.644531 -5.269531 8.828125 -4.59375 8.828125 -3.84375 C 8.828125 -3.082031 8.644531 -2.398438 8.28125 -1.796875 C 7.914062 -1.203125 7.414062 -0.734375 6.78125 -0.390625 C 6.144531 -0.046875 5.425781 0.125 4.625 0.125 Z M 4.625 -1.375 C 5.082031 -1.375 5.492188 -1.476562 5.859375 -1.6875 C 6.222656 -1.894531 6.507812 -2.1875 6.71875 -2.5625 C 6.925781 -2.9375 7.03125 -3.363281 7.03125 -3.84375 C 7.03125 -4.3125 6.925781 -4.734375 6.71875 -5.109375 C 6.507812 -5.484375 6.222656 -5.773438 5.859375 -5.984375 C 5.492188 -6.191406 5.082031 -6.296875 4.625 -6.296875 C 4.175781 -6.296875 3.769531 -6.191406 3.40625 -5.984375 C 3.039062 -5.773438 2.753906 -5.484375 2.546875 -5.109375 C 2.335938 -4.734375 2.234375 -4.3125 2.234375 -3.84375 C 2.234375 -3.363281 2.335938 -2.9375 2.546875 -2.5625 C 2.753906 -2.1875 3.039062 -1.894531 3.40625 -1.6875 C 3.769531 -1.476562 4.175781 -1.375 4.625 -1.375 Z M 4.625 -1.375 "/></g></g></g><g fill="#ff751f" fill-opacity="1"><g transform="translate(106.96087, 353.819302)"><g><path d="M 0.90625 -7.671875 L 2.6875 -7.671875 L 2.6875 -1.453125 L 6.53125 -1.453125 L 6.53125 0 L 0.90625 0 Z M 0.90625 -7.671875 "/></g></g></g><g fill="#ff751f" fill-opacity="1"><g transform="translate(115.287271, 353.819302)"><g><path d="M 0.90625 -7.671875 L 2.6875 -7.671875 L 2.6875 0 L 0.90625 0 Z M 0.90625 -7.671875 "/></g></g></g><g fill="#ff751f" fill-opacity="1"><g transform="translate(120.586285, 353.819302)"><g><path d="M 3.4375 0.125 C 2.820312 0.125 2.234375 0.046875 1.671875 -0.109375 C 1.109375 -0.273438 0.65625 -0.488281 0.3125 -0.75 L 0.90625 -2.09375 C 1.238281 -1.851562 1.628906 -1.660156 2.078125 -1.515625 C 2.535156 -1.367188 2.988281 -1.296875 3.4375 -1.296875 C 3.945312 -1.296875 4.320312 -1.367188 4.5625 -1.515625 C 4.800781 -1.671875 4.921875 -1.867188 4.921875 -2.109375 C 4.921875 -2.296875 4.847656 -2.445312 4.703125 -2.5625 C 4.566406 -2.6875 4.382812 -2.785156 4.15625 -2.859375 C 3.9375 -2.929688 3.632812 -3.015625 3.25 -3.109375 C 2.664062 -3.242188 2.1875 -3.378906 1.8125 -3.515625 C 1.445312 -3.660156 1.128906 -3.882812 0.859375 -4.1875 C 0.585938 -4.5 0.453125 -4.910156 0.453125 -5.421875 C 0.453125 -5.867188 0.570312 -6.269531 0.8125 -6.625 C 1.0625 -6.988281 1.425781 -7.273438 1.90625 -7.484375 C 2.394531 -7.703125 2.992188 -7.8125 3.703125 -7.8125 C 4.191406 -7.8125 4.664062 -7.75 5.125 -7.625 C 5.59375 -7.507812 6.003906 -7.34375 6.359375 -7.125 L 5.8125 -5.78125 C 5.101562 -6.1875 4.394531 -6.390625 3.6875 -6.390625 C 3.1875 -6.390625 2.816406 -6.304688 2.578125 -6.140625 C 2.347656 -5.984375 2.234375 -5.769531 2.234375 -5.5 C 2.234375 -5.238281 2.367188 -5.046875 2.640625 -4.921875 C 2.910156 -4.796875 3.328125 -4.671875 3.890625 -4.546875 C 4.472656 -4.398438 4.953125 -4.257812 5.328125 -4.125 C 5.703125 -3.988281 6.019531 -3.769531 6.28125 -3.46875 C 6.550781 -3.164062 6.6875 -2.757812 6.6875 -2.25 C 6.6875 -1.8125 6.5625 -1.410156 6.3125 -1.046875 C 6.070312 -0.679688 5.707031 -0.394531 5.21875 -0.1875 C 4.726562 0.0195312 4.132812 0.125 3.4375 0.125 Z M 3.4375 0.125 "/></g></g></g><g fill="#ff751f" fill-opacity="1"><g transform="translate(129.285625, 353.819302)"><g><path d="M 2.5 -6.234375 L 0.046875 -6.234375 L 0.046875 -7.671875 L 6.734375 -7.671875 L 6.734375 -6.234375 L 4.28125 -6.234375 L 4.28125 0 L 2.5 0 Z M 2.5 -6.234375 "/></g></g></g><g fill="#ff751f" fill-opacity="1"><g transform="translate(137.765594, 353.819302)"><g><path d="M 0.90625 -7.671875 L 2.6875 -7.671875 L 2.6875 0 L 0.90625 0 Z M 0.90625 -7.671875 "/></g></g></g><g fill="#ff751f" fill-opacity="1"><g transform="translate(143.064609, 353.819302)"><g><path d="M 4.578125 0.125 C 3.796875 0.125 3.085938 -0.0390625 2.453125 -0.375 C 1.828125 -0.71875 1.332031 -1.191406 0.96875 -1.796875 C 0.601562 -2.398438 0.421875 -3.082031 0.421875 -3.84375 C 0.421875 -4.601562 0.601562 -5.285156 0.96875 -5.890625 C 1.332031 -6.492188 1.828125 -6.960938 2.453125 -7.296875 C 3.085938 -7.640625 3.800781 -7.8125 4.59375 -7.8125 C 5.257812 -7.8125 5.859375 -7.691406 6.390625 -7.453125 C 6.929688 -7.222656 7.382812 -6.890625 7.75 -6.453125 L 6.609375 -5.390625 C 6.085938 -5.992188 5.445312 -6.296875 4.6875 -6.296875 C 4.207031 -6.296875 3.78125 -6.191406 3.40625 -5.984375 C 3.039062 -5.773438 2.753906 -5.484375 2.546875 -5.109375 C 2.335938 -4.734375 2.234375 -4.3125 2.234375 -3.84375 C 2.234375 -3.363281 2.335938 -2.9375 2.546875 -2.5625 C 2.753906 -2.1875 3.039062 -1.894531 3.40625 -1.6875 C 3.78125 -1.476562 4.207031 -1.375 4.6875 -1.375 C 5.445312 -1.375 6.085938 -1.679688 6.609375 -2.296875 L 7.75 -1.234375 C 7.382812 -0.796875 6.929688 -0.457031 6.390625 -0.21875 C 5.847656 0.0078125 5.242188 0.125 4.578125 0.125 Z M 4.578125 0.125 "/></g></g></g><g fill="#ff751f" fill-opacity="1"><g transform="translate(152.805991, 353.819302)"><g/></g></g><g fill="#ff751f" fill-opacity="1"><g transform="translate(157.61141, 353.819302)"><g><path d="M 6.09375 -3.953125 L 7.71875 -3.953125 L 7.71875 -0.84375 C 7.300781 -0.53125 6.816406 -0.289062 6.265625 -0.125 C 5.722656 0.0390625 5.175781 0.125 4.625 0.125 C 3.820312 0.125 3.101562 -0.0390625 2.46875 -0.375 C 1.832031 -0.71875 1.332031 -1.191406 0.96875 -1.796875 C 0.601562 -2.398438 0.421875 -3.082031 0.421875 -3.84375 C 0.421875 -4.601562 0.601562 -5.285156 0.96875 -5.890625 C 1.332031 -6.492188 1.832031 -6.960938 2.46875 -7.296875 C 3.113281 -7.640625 3.84375 -7.8125 4.65625 -7.8125 C 5.320312 -7.8125 5.929688 -7.695312 6.484375 -7.46875 C 7.035156 -7.238281 7.492188 -6.910156 7.859375 -6.484375 L 6.71875 -5.421875 C 6.175781 -6.003906 5.515625 -6.296875 4.734375 -6.296875 C 4.242188 -6.296875 3.804688 -6.191406 3.421875 -5.984375 C 3.046875 -5.785156 2.753906 -5.5 2.546875 -5.125 C 2.335938 -4.75 2.234375 -4.320312 2.234375 -3.84375 C 2.234375 -3.363281 2.335938 -2.9375 2.546875 -2.5625 C 2.753906 -2.1875 3.046875 -1.894531 3.421875 -1.6875 C 3.804688 -1.476562 4.238281 -1.375 4.71875 -1.375 C 5.226562 -1.375 5.6875 -1.488281 6.09375 -1.71875 Z M 6.09375 -3.953125 "/></g></g></g><g fill="#ff751f" fill-opacity="1"><g transform="translate(167.769597, 353.819302)"><g><path d="M 0.90625 -7.671875 L 2.6875 -7.671875 L 2.6875 -1.453125 L 6.53125 -1.453125 L 6.53125 0 L 0.90625 0 Z M 0.90625 -7.671875 "/></g></g></g><g fill="#ff751f" fill-opacity="1"><g transform="translate(176.095998, 353.819302)"><g><path d="M 4.625 0.125 C 3.832031 0.125 3.113281 -0.046875 2.46875 -0.390625 C 1.832031 -0.734375 1.332031 -1.203125 0.96875 -1.796875 C 0.601562 -2.398438 0.421875 -3.082031 0.421875 -3.84375 C 0.421875 -4.59375 0.601562 -5.269531 0.96875 -5.875 C 1.332031 -6.476562 1.832031 -6.953125 2.46875 -7.296875 C 3.113281 -7.640625 3.832031 -7.8125 4.625 -7.8125 C 5.425781 -7.8125 6.144531 -7.640625 6.78125 -7.296875 C 7.414062 -6.953125 7.914062 -6.476562 8.28125 -5.875 C 8.644531 -5.269531 8.828125 -4.59375 8.828125 -3.84375 C 8.828125 -3.082031 8.644531 -2.398438 8.28125 -1.796875 C 7.914062 -1.203125 7.414062 -0.734375 6.78125 -0.390625 C 6.144531 -0.046875 5.425781 0.125 4.625 0.125 Z M 4.625 -1.375 C 5.082031 -1.375 5.492188 -1.476562 5.859375 -1.6875 C 6.222656 -1.894531 6.507812 -2.1875 6.71875 -2.5625 C 6.925781 -2.9375 7.03125 -3.363281 7.03125 -3.84375 C 7.03125 -4.3125 6.925781 -4.734375 6.71875 -5.109375 C 6.507812 -5.484375 6.222656 -5.773438 5.859375 -5.984375 C 5.492188 -6.191406 5.082031 -6.296875 4.625 -6.296875 C 4.175781 -6.296875 3.769531 -6.191406 3.40625 -5.984375 C 3.039062 -5.773438 2.753906 -5.484375 2.546875 -5.109375 C 2.335938 -4.734375 2.234375 -4.3125 2.234375 -3.84375 C 2.234375 -3.363281 2.335938 -2.9375 2.546875 -2.5625 C 2.753906 -2.1875 3.039062 -1.894531 3.40625 -1.6875 C 3.769531 -1.476562 4.175781 -1.375 4.625 -1.375 Z M 4.625 -1.375 "/></g></g></g><g fill="#ff751f" fill-opacity="1"><g transform="translate(187.054916, 353.819302)"><g><path d="M 6.546875 -4 C 6.984375 -3.851562 7.328125 -3.617188 7.578125 -3.296875 C 7.828125 -2.972656 7.953125 -2.570312 7.953125 -2.09375 C 7.953125 -1.414062 7.691406 -0.894531 7.171875 -0.53125 C 6.648438 -0.175781 5.882812 0 4.875 0 L 0.90625 0 L 0.90625 -7.671875 L 4.65625 -7.671875 C 5.59375 -7.671875 6.3125 -7.492188 6.8125 -7.140625 C 7.3125 -6.785156 7.5625 -6.300781 7.5625 -5.6875 C 7.5625 -5.3125 7.472656 -4.976562 7.296875 -4.6875 C 7.117188 -4.394531 6.867188 -4.164062 6.546875 -4 Z M 2.671875 -6.34375 L 2.671875 -4.53125 L 4.4375 -4.53125 C 4.875 -4.53125 5.207031 -4.601562 5.4375 -4.75 C 5.664062 -4.90625 5.78125 -5.132812 5.78125 -5.4375 C 5.78125 -5.738281 5.664062 -5.960938 5.4375 -6.109375 C 5.207031 -6.265625 4.875 -6.34375 4.4375 -6.34375 Z M 4.75 -1.34375 C 5.21875 -1.34375 5.570312 -1.414062 5.8125 -1.5625 C 6.050781 -1.71875 6.171875 -1.957031 6.171875 -2.28125 C 6.171875 -2.914062 5.695312 -3.234375 4.75 -3.234375 L 2.671875 -3.234375 L 2.671875 -1.34375 Z M 4.75 -1.34375 "/></g></g></g><g fill="#ff751f" fill-opacity="1"><g transform="translate(197.1473, 353.819302)"><g><path d="M 5.96875 -1.640625 L 2.40625 -1.640625 L 1.71875 0 L -0.09375 0 L 3.328125 -7.671875 L 5.078125 -7.671875 L 8.515625 0 L 6.640625 0 Z M 5.40625 -3 L 4.1875 -5.9375 L 2.96875 -3 Z M 5.40625 -3 "/></g></g></g><g fill="#ff751f" fill-opacity="1"><g transform="translate(207.250647, 353.819302)"><g><path d="M 0.90625 -7.671875 L 2.6875 -7.671875 L 2.6875 -1.453125 L 6.53125 -1.453125 L 6.53125 0 L 0.90625 0 Z M 0.90625 -7.671875 "/></g></g></g><g fill="#ff751f" fill-opacity="1"><g transform="translate(215.577048, 353.819302)"><g/></g></g><g fill="#ff751f" fill-opacity="1"><g transform="translate(220.382467, 353.819302)"><g><path d="M 4.625 0.125 C 3.832031 0.125 3.113281 -0.046875 2.46875 -0.390625 C 1.832031 -0.734375 1.332031 -1.203125 0.96875 -1.796875 C 0.601562 -2.398438 0.421875 -3.082031 0.421875 -3.84375 C 0.421875 -4.59375 0.601562 -5.269531 0.96875 -5.875 C 1.332031 -6.476562 1.832031 -6.953125 2.46875 -7.296875 C 3.113281 -7.640625 3.832031 -7.8125 4.625 -7.8125 C 5.425781 -7.8125 6.144531 -7.640625 6.78125 -7.296875 C 7.414062 -6.953125 7.914062 -6.476562 8.28125 -5.875 C 8.644531 -5.269531 8.828125 -4.59375 8.828125 -3.84375 C 8.828125 -3.082031 8.644531 -2.398438 8.28125 -1.796875 C 7.914062 -1.203125 7.414062 -0.734375 6.78125 -0.390625 C 6.144531 -0.046875 5.425781 0.125 4.625 0.125 Z M 4.625 -1.375 C 5.082031 -1.375 5.492188 -1.476562 5.859375 -1.6875 C 6.222656 -1.894531 6.507812 -2.1875 6.71875 -2.5625 C 6.925781 -2.9375 7.03125 -3.363281 7.03125 -3.84375 C 7.03125 -4.3125 6.925781 -4.734375 6.71875 -5.109375 C 6.507812 -5.484375 6.222656 -5.773438 5.859375 -5.984375 C 5.492188 -6.191406 5.082031 -6.296875 4.625 -6.296875 C 4.175781 -6.296875 3.769531 -6.191406 3.40625 -5.984375 C 3.039062 -5.773438 2.753906 -5.484375 2.546875 -5.109375 C 2.335938 -4.734375 2.234375 -4.3125 2.234375 -3.84375 C 2.234375 -3.363281 2.335938 -2.9375 2.546875 -2.5625 C 2.753906 -2.1875 3.039062 -1.894531 3.40625 -1.6875 C 3.769531 -1.476562 4.175781 -1.375 4.625 -1.375 Z M 4.625 -1.375 "/></g></g></g><g fill="#ff751f" fill-opacity="1"><g transform="translate(231.341386, 353.819302)"><g><path d="M 4.328125 0.125 C 3.222656 0.125 2.363281 -0.175781 1.75 -0.78125 C 1.144531 -1.382812 0.84375 -2.25 0.84375 -3.375 L 0.84375 -7.671875 L 2.625 -7.671875 L 2.625 -3.4375 C 2.625 -2.0625 3.191406 -1.375 4.328125 -1.375 C 4.890625 -1.375 5.316406 -1.539062 5.609375 -1.875 C 5.898438 -2.207031 6.046875 -2.726562 6.046875 -3.4375 L 6.046875 -7.671875 L 7.796875 -7.671875 L 7.796875 -3.375 C 7.796875 -2.25 7.488281 -1.382812 6.875 -0.78125 C 6.269531 -0.175781 5.421875 0.125 4.328125 0.125 Z M 4.328125 0.125 "/></g></g></g><g fill="#ff751f" fill-opacity="1"><g transform="translate(241.686043, 353.819302)"><g><path d="M 2.5 -6.234375 L 0.046875 -6.234375 L 0.046875 -7.671875 L 6.734375 -7.671875 L 6.734375 -6.234375 L 4.28125 -6.234375 L 4.28125 0 L 2.5 0 Z M 2.5 -6.234375 "/></g></g></g><g fill="#ff751f" fill-opacity="1"><g transform="translate(250.166012, 353.819302)"><g><path d="M 5.796875 0 L 4.328125 -2.140625 L 2.6875 -2.140625 L 2.6875 0 L 0.90625 0 L 0.90625 -7.671875 L 4.234375 -7.671875 C 4.910156 -7.671875 5.5 -7.554688 6 -7.328125 C 6.5 -7.109375 6.882812 -6.789062 7.15625 -6.375 C 7.425781 -5.957031 7.5625 -5.460938 7.5625 -4.890625 C 7.5625 -4.316406 7.425781 -3.820312 7.15625 -3.40625 C 6.882812 -3 6.492188 -2.6875 5.984375 -2.46875 L 7.71875 0 Z M 5.765625 -4.890625 C 5.765625 -5.328125 5.625 -5.660156 5.34375 -5.890625 C 5.070312 -6.117188 4.671875 -6.234375 4.140625 -6.234375 L 2.6875 -6.234375 L 2.6875 -3.546875 L 4.140625 -3.546875 C 4.671875 -3.546875 5.070312 -3.660156 5.34375 -3.890625 C 5.625 -4.128906 5.765625 -4.460938 5.765625 -4.890625 Z M 5.765625 -4.890625 "/></g></g></g><g fill="#ff751f" fill-opacity="1"><g transform="translate(259.929332, 353.819302)"><g><path d="M 6.859375 -1.421875 L 6.859375 0 L 0.90625 0 L 0.90625 -7.671875 L 6.71875 -7.671875 L 6.71875 -6.25 L 2.671875 -6.25 L 2.671875 -4.578125 L 6.234375 -4.578125 L 6.234375 -3.203125 L 2.671875 -3.203125 L 2.671875 -1.421875 Z M 6.859375 -1.421875 "/></g></g></g><g fill="#ff751f" fill-opacity="1"><g transform="translate(268.990649, 353.819302)"><g><path d="M 5.96875 -1.640625 L 2.40625 -1.640625 L 1.71875 0 L -0.09375 0 L 3.328125 -7.671875 L 5.078125 -7.671875 L 8.515625 0 L 6.640625 0 Z M 5.40625 -3 L 4.1875 -5.9375 L 2.96875 -3 Z M 5.40625 -3 "/></g></g></g><g fill="#ff751f" fill-opacity="1"><g transform="translate(279.093996, 353.819302)"><g><path d="M 4.578125 0.125 C 3.796875 0.125 3.085938 -0.0390625 2.453125 -0.375 C 1.828125 -0.71875 1.332031 -1.191406 0.96875 -1.796875 C 0.601562 -2.398438 0.421875 -3.082031 0.421875 -3.84375 C 0.421875 -4.601562 0.601562 -5.285156 0.96875 -5.890625 C 1.332031 -6.492188 1.828125 -6.960938 2.453125 -7.296875 C 3.085938 -7.640625 3.800781 -7.8125 4.59375 -7.8125 C 5.257812 -7.8125 5.859375 -7.691406 6.390625 -7.453125 C 6.929688 -7.222656 7.382812 -6.890625 7.75 -6.453125 L 6.609375 -5.390625 C 6.085938 -5.992188 5.445312 -6.296875 4.6875 -6.296875 C 4.207031 -6.296875 3.78125 -6.191406 3.40625 -5.984375 C 3.039062 -5.773438 2.753906 -5.484375 2.546875 -5.109375 C 2.335938 -4.734375 2.234375 -4.3125 2.234375 -3.84375 C 2.234375 -3.363281 2.335938 -2.9375 2.546875 -2.5625 C 2.753906 -2.1875 3.039062 -1.894531 3.40625 -1.6875 C 3.78125 -1.476562 4.207031 -1.375 4.6875 -1.375 C 5.445312 -1.375 6.085938 -1.679688 6.609375 -2.296875 L 7.75 -1.234375 C 7.382812 -0.796875 6.929688 -0.457031 6.390625 -0.21875 C 5.847656 0.0078125 5.242188 0.125 4.578125 0.125 Z M 4.578125 0.125 "/></g></g></g><g fill="#ff751f" fill-opacity="1"><g transform="translate(288.835389, 353.819302)"><g><path d="M 7.953125 -7.671875 L 7.953125 0 L 6.171875 0 L 6.171875 -3.140625 L 2.6875 -3.140625 L 2.6875 0 L 0.90625 0 L 0.90625 -7.671875 L 2.6875 -7.671875 L 2.6875 -4.65625 L 6.171875 -4.65625 L 6.171875 -7.671875 Z M 7.953125 -7.671875 "/></g></g></g><g transform="matrix(1, 0, 0, 1, 184, 283)"><g clip-path="url(#0fd2532bbe)"><g fill="#1c9ae1" fill-opacity="1"><g transform="translate(0.295822, 34.40856)"><g><path d="M 11.671875 -9.484375 L 8.421875 -6.109375 L 8.421875 0 L 2.859375 0 L 2.859375 -24.15625 L 8.421875 -24.15625 L 8.421875 -12.875 L 19.125 -24.15625 L 25.328125 -24.15625 L 15.328125 -13.390625 L 25.921875 0 L 19.390625 0 Z M 11.671875 -9.484375 "/></g></g></g><g fill="#1c9ae1" fill-opacity="1"><g transform="translate(24.034769, 34.40856)"><g><path d="M 2.859375 -24.15625 L 8.453125 -24.15625 L 8.453125 0 L 2.859375 0 Z M 2.859375 -24.15625 "/></g></g></g><g fill="#1c9ae1" fill-opacity="1"><g transform="translate(33.55763, 34.40856)"><g><path d="M 2.859375 -24.15625 L 13.84375 -24.15625 C 16.46875 -24.15625 18.785156 -23.65625 20.796875 -22.65625 C 22.804688 -21.65625 24.367188 -20.242188 25.484375 -18.421875 C 26.597656 -16.609375 27.15625 -14.492188 27.15625 -12.078125 C 27.15625 -9.660156 26.597656 -7.539062 25.484375 -5.71875 C 24.367188 -3.90625 22.804688 -2.5 20.796875 -1.5 C 18.785156 -0.5 16.46875 0 13.84375 0 L 2.859375 0 Z M 13.5625 -4.59375 C 15.976562 -4.59375 17.90625 -5.265625 19.34375 -6.609375 C 20.78125 -7.953125 21.5 -9.773438 21.5 -12.078125 C 21.5 -14.378906 20.78125 -16.203125 19.34375 -17.546875 C 17.90625 -18.898438 15.976562 -19.578125 13.5625 -19.578125 L 8.453125 -19.578125 L 8.453125 -4.59375 Z M 13.5625 -4.59375 "/></g></g></g><g fill="#1c9ae1" fill-opacity="1"><g transform="translate(60.264025, 34.40856)"><g><path d="M 18.78125 -5.171875 L 7.5625 -5.171875 L 5.421875 0 L -0.3125 0 L 10.453125 -24.15625 L 15.984375 -24.15625 L 26.78125 0 L 20.921875 0 Z M 17.015625 -9.421875 L 13.1875 -18.671875 L 9.359375 -9.421875 Z M 17.015625 -9.421875 "/></g></g></g><g fill="#1c9ae1" fill-opacity="1"><g transform="translate(84.900118, 34.40856)"><g><path d="M 25.03125 -24.15625 L 25.03125 0 L 20.4375 0 L 8.390625 -14.671875 L 8.390625 0 L 2.859375 0 L 2.859375 -24.15625 L 7.484375 -24.15625 L 19.5 -9.484375 L 19.5 -24.15625 Z M 25.03125 -24.15625 "/></g></g></g></g></g></svg>