<svg xmlns="http://www.w3.org/2000/svg" xmlns:xlink="http://www.w3.org/1999/xlink" width="500" zoomAndPan="magnify" viewBox="0 0 375 374.999991" height="500" preserveAspectRatio="xMidYMid meet" version="1.0"><defs><g/><clipPath id="b1f0fa7bbc"><path d="M 175 182 L 291 182 L 291 262.515625 L 175 262.515625 Z M 175 182 " clip-rule="nonzero"/></clipPath><clipPath id="8eeb47e8f2"><rect x="0" width="180" y="0" height="73"/></clipPath><clipPath id="ffeef057aa"><rect x="0" width="360" y="0" height="60"/></clipPath><clipPath id="f6424d4e67"><rect x="0" width="189" y="0" height="73"/></clipPath></defs><path fill="#f68712" d="M 140.585938 51.675781 C 136.234375 54.410156 130.613281 57.03125 123.503906 59.402344 C 107.71875 64.65625 91.09375 62.03125 75.296875 66.230469 C 71.300781 67.292969 65.359375 70.128906 61.757812 73.839844 C 61.757812 73.839844 72.777344 52.972656 104.886719 40.511719 C 107.785156 39.386719 110.851562 38.328125 114.101562 37.363281 C 133.824219 31.492188 128.265625 23.230469 119.636719 25.660156 C 119.636719 25.660156 126.78125 20.632812 136.917969 21.015625 C 152.195312 21.597656 162.386719 37.996094 140.585938 51.675781 " fill-opacity="1" fill-rule="nonzero"/><path fill="#f68712" d="M 219.03125 51.804688 C 215.855469 65.164062 206.125 76.898438 195.136719 86.320312 C 182.972656 96.757812 169.265625 104.363281 161.234375 108.195312 C 108.816406 133.242188 56.210938 123.855469 49.96875 149.390625 C 49.96875 149.390625 37.492188 126.429688 66.917969 110.160156 C 83.121094 101.203125 92.203125 96.570312 130.03125 82.871094 C 141.460938 78.726562 155.40625 73.675781 167.746094 65.585938 C 176.15625 60.070312 183.824219 53.144531 189.449219 44.132812 C 199.179688 28.539062 186.898438 13.054688 164.675781 11.746094 C 198.523438 9.855469 224.777344 27.632812 219.03125 51.804688 " fill-opacity="1" fill-rule="nonzero"/><path fill="#3871c1" d="M 238.238281 144.511719 C 227.328125 152.921875 213.847656 160.859375 197.644531 168.015625 C 135.390625 195.511719 83.671875 189.492188 71.628906 215.789062 C 71.628906 215.789062 55.148438 181.304688 112.609375 162.617188 C 163.132812 146.191406 197.914062 130.378906 220.769531 115.316406 C 270.625 82.476562 263.773438 53.195312 239.8125 28.808594 C 241.242188 29.667969 242.613281 30.511719 243.851562 31.300781 C 284.445312 59.734375 287.105469 106.847656 238.238281 144.511719 " fill-opacity="1" fill-rule="nonzero"/><path fill="#40b93c" d="M 288.179688 169.191406 C 281.074219 181.585938 270.664062 191.945312 258.199219 200.707031 C 243.246094 211.222656 225.320312 219.449219 206.582031 226.152344 C 181.96875 234.957031 121.515625 242.285156 119.5625 256.359375 C 119.5625 256.359375 111.859375 242.039062 139.203125 228.089844 C 170.597656 212.078125 203.640625 199.578125 234.804688 183.074219 C 237.847656 181.464844 243.683594 178.527344 250.542969 174.171875 C 271.84375 160.664062 303 133.554688 290.847656 90.546875 C 291.292969 91.222656 313.496094 125.035156 288.179688 169.191406 " fill-opacity="1" fill-rule="nonzero"/><g clip-path="url(#b1f0fa7bbc)"><path fill="#40b93c" d="M 290.445312 182.21875 C 290.445312 182.21875 289.1875 200.753906 262.996094 224.675781 C 262.929688 224.746094 262.855469 224.808594 262.785156 224.875 C 248.761719 237.632812 231.867188 246.855469 217.449219 252.90625 C 195.253906 262.21875 175.695312 262.378906 175.492188 262.441406 C 199.957031 254.792969 235.691406 234.609375 261.136719 214.304688 C 275.414062 202.914062 286.457031 191.488281 290.445312 182.21875 " fill-opacity="1" fill-rule="nonzero"/></g><path fill="#fbc108" d="M 140.585938 51.675781 C 128.171875 46.515625 116.054688 42.953125 104.886719 40.511719 C 107.785156 39.386719 110.851562 38.328125 114.101562 37.363281 C 133.824219 31.492188 128.265625 23.230469 119.636719 25.660156 C 119.636719 25.660156 126.78125 20.632812 136.917969 21.015625 C 152.195312 21.597656 162.386719 37.996094 140.585938 51.675781 " fill-opacity="1" fill-rule="nonzero"/><path fill="#fbc108" d="M 219.03125 51.804688 C 215.855469 65.164062 206.125 76.898438 195.136719 86.320312 C 186.273438 78.195312 177.0625 71.347656 167.746094 65.585938 C 176.15625 60.070312 183.824219 53.144531 189.449219 44.132812 C 199.179688 28.539062 186.898438 13.054688 164.675781 11.746094 C 198.523438 9.855469 224.777344 27.632812 219.03125 51.804688 " fill-opacity="1" fill-rule="nonzero"/><path fill="#00adef" d="M 238.238281 144.511719 C 232.914062 133.761719 227.046875 124.0625 220.769531 115.316406 C 270.625 82.476562 263.773438 53.195312 239.8125 28.808594 C 241.242188 29.667969 242.613281 30.511719 243.851562 31.300781 C 284.445312 59.734375 287.105469 106.847656 238.238281 144.511719 " fill-opacity="1" fill-rule="nonzero"/><path fill="#80cc28" d="M 290.445312 182.21875 C 290.445312 182.21875 289.1875 200.753906 262.996094 224.675781 C 262.421875 221.152344 261.800781 217.695312 261.136719 214.304688 C 275.414062 202.914062 286.457031 191.488281 290.445312 182.21875 " fill-opacity="1" fill-rule="nonzero"/><path fill="#80cc28" d="M 258.199219 200.707031 C 255.957031 191.34375 253.394531 182.511719 250.542969 174.171875 C 271.84375 160.664062 303 133.554688 290.847656 90.546875 C 291.292969 91.222656 313.496094 125.035156 288.179688 169.191406 C 281.074219 181.585938 270.664062 191.945312 258.199219 200.707031 " fill-opacity="1" fill-rule="nonzero"/><g transform="matrix(1, 0, 0, 1, 3, 246)"><g clip-path="url(#8eeb47e8f2)"><g fill="#ff751f" fill-opacity="1"><g transform="translate(1.135692, 57.713696)"><g><path d="M 31.984375 -10.8125 L 9.421875 -10.8125 L 4.5625 0 L 0.109375 0 L 18.625 -40.484375 L 22.84375 -40.484375 L 41.34375 0 L 36.84375 0 Z M 30.421875 -14.28125 L 20.703125 -36.03125 L 10.984375 -14.28125 Z M 30.421875 -14.28125 "/></g></g></g><g fill="#ff751f" fill-opacity="1"><g transform="translate(39.583107, 57.713696)"><g><path d="M 6.59375 -40.484375 L 23.078125 -40.484375 C 27.359375 -40.484375 31.132812 -39.625 34.40625 -37.90625 C 37.6875 -36.1875 40.234375 -33.796875 42.046875 -30.734375 C 43.859375 -27.671875 44.765625 -24.171875 44.765625 -20.234375 C 44.765625 -16.304688 43.859375 -12.804688 42.046875 -9.734375 C 40.234375 -6.671875 37.6875 -4.28125 34.40625 -2.5625 C 31.132812 -0.851562 27.359375 0 23.078125 0 L 6.59375 0 Z M 22.84375 -3.703125 C 26.382812 -3.703125 29.484375 -4.40625 32.140625 -5.8125 C 34.804688 -7.21875 36.867188 -9.160156 38.328125 -11.640625 C 39.796875 -14.128906 40.53125 -16.992188 40.53125 -20.234375 C 40.53125 -23.472656 39.796875 -26.335938 38.328125 -28.828125 C 36.867188 -31.316406 34.804688 -33.265625 32.140625 -34.671875 C 29.484375 -36.078125 26.382812 -36.78125 22.84375 -36.78125 L 10.875 -36.78125 L 10.875 -3.703125 Z M 22.84375 -3.703125 "/></g></g></g><g fill="#ff751f" fill-opacity="1"><g transform="translate(84.332591, 57.713696)"><g><path d="M 6.59375 -40.484375 L 23.078125 -40.484375 C 27.359375 -40.484375 31.132812 -39.625 34.40625 -37.90625 C 37.6875 -36.1875 40.234375 -33.796875 42.046875 -30.734375 C 43.859375 -27.671875 44.765625 -24.171875 44.765625 -20.234375 C 44.765625 -16.304688 43.859375 -12.804688 42.046875 -9.734375 C 40.234375 -6.671875 37.6875 -4.28125 34.40625 -2.5625 C 31.132812 -0.851562 27.359375 0 23.078125 0 L 6.59375 0 Z M 22.84375 -3.703125 C 26.382812 -3.703125 29.484375 -4.40625 32.140625 -5.8125 C 34.804688 -7.21875 36.867188 -9.160156 38.328125 -11.640625 C 39.796875 -14.128906 40.53125 -16.992188 40.53125 -20.234375 C 40.53125 -23.472656 39.796875 -26.335938 38.328125 -28.828125 C 36.867188 -31.316406 34.804688 -33.265625 32.140625 -34.671875 C 29.484375 -36.078125 26.382812 -36.78125 22.84375 -36.78125 L 10.875 -36.78125 L 10.875 -3.703125 Z M 22.84375 -3.703125 "/></g></g></g><g fill="#ff751f" fill-opacity="1"><g transform="translate(129.082074, 57.713696)"><g><path d="M 6.59375 -40.484375 L 10.875 -40.484375 L 10.875 0 L 6.59375 0 Z M 6.59375 -40.484375 "/></g></g></g><g fill="#ff751f" fill-opacity="1"><g transform="translate(143.535427, 57.713696)"><g><path d="M 17.75 0.34375 C 14.75 0.34375 11.867188 -0.132812 9.109375 -1.09375 C 6.347656 -2.0625 4.21875 -3.335938 2.71875 -4.921875 L 4.390625 -8.21875 C 5.859375 -6.75 7.804688 -5.5625 10.234375 -4.65625 C 12.660156 -3.75 15.164062 -3.296875 17.75 -3.296875 C 21.375 -3.296875 24.09375 -3.957031 25.90625 -5.28125 C 27.71875 -6.613281 28.625 -8.34375 28.625 -10.46875 C 28.625 -12.082031 28.128906 -13.367188 27.140625 -14.328125 C 26.160156 -15.296875 24.957031 -16.039062 23.53125 -16.5625 C 22.101562 -17.082031 20.117188 -17.65625 17.578125 -18.28125 C 14.535156 -19.050781 12.109375 -19.789062 10.296875 -20.5 C 8.484375 -21.207031 6.929688 -22.296875 5.640625 -23.765625 C 4.347656 -25.234375 3.703125 -27.21875 3.703125 -29.71875 C 3.703125 -31.757812 4.238281 -33.617188 5.3125 -35.296875 C 6.394531 -36.972656 8.050781 -38.3125 10.28125 -39.3125 C 12.519531 -40.320312 15.300781 -40.828125 18.625 -40.828125 C 20.9375 -40.828125 23.195312 -40.507812 25.40625 -39.875 C 27.625 -39.238281 29.546875 -38.359375 31.171875 -37.234375 L 29.71875 -33.828125 C 28.019531 -34.941406 26.207031 -35.78125 24.28125 -36.34375 C 22.351562 -36.90625 20.46875 -37.1875 18.625 -37.1875 C 15.070312 -37.1875 12.398438 -36.5 10.609375 -35.125 C 8.816406 -33.757812 7.921875 -32 7.921875 -29.84375 C 7.921875 -28.21875 8.410156 -26.914062 9.390625 -25.9375 C 10.378906 -24.957031 11.613281 -24.207031 13.09375 -23.6875 C 14.582031 -23.164062 16.578125 -22.59375 19.078125 -21.96875 C 22.046875 -21.238281 24.445312 -20.515625 26.28125 -19.796875 C 28.113281 -19.085938 29.664062 -18.007812 30.9375 -16.5625 C 32.207031 -15.125 32.84375 -13.171875 32.84375 -10.703125 C 32.84375 -8.660156 32.289062 -6.800781 31.1875 -5.125 C 30.09375 -3.445312 28.40625 -2.113281 26.125 -1.125 C 23.851562 -0.144531 21.0625 0.34375 17.75 0.34375 Z M 17.75 0.34375 "/></g></g></g></g></g><g transform="matrix(1, 0, 0, 1, 15, 310)"><g clip-path="url(#ffeef057aa)"><g fill="#00bf63" fill-opacity="1"><g transform="translate(61.550496, 25.819631)"><g><path d="M 20.109375 0 L 20.078125 -12.65625 L 13.796875 -2.1875 L 12.21875 -2.1875 L 5.953125 -12.5 L 5.953125 0 L 2.5625 0 L 2.5625 -19.09375 L 5.484375 -19.09375 L 13.0625 -6.4375 L 20.515625 -19.09375 L 23.4375 -19.09375 L 23.46875 0 Z M 20.109375 0 "/></g></g></g><g fill="#00bf63" fill-opacity="1"><g transform="translate(104.10752, 25.819631)"><g><path d="M 2.5625 -19.09375 L 6.109375 -19.09375 L 6.109375 0 L 2.5625 0 Z M 2.5625 -19.09375 "/></g></g></g><g fill="#00bf63" fill-opacity="1"><g transform="translate(129.317901, 25.819631)"><g><path d="M 8.484375 0.265625 C 7.015625 0.265625 5.59375 0.0546875 4.21875 -0.359375 C 2.84375 -0.773438 1.753906 -1.328125 0.953125 -2.015625 L 2.1875 -4.78125 C 2.96875 -4.15625 3.925781 -3.644531 5.0625 -3.25 C 6.195312 -2.863281 7.335938 -2.671875 8.484375 -2.671875 C 9.898438 -2.671875 10.957031 -2.894531 11.65625 -3.34375 C 12.363281 -3.800781 12.71875 -4.40625 12.71875 -5.15625 C 12.71875 -5.695312 12.519531 -6.144531 12.125 -6.5 C 11.738281 -6.851562 11.242188 -7.128906 10.640625 -7.328125 C 10.035156 -7.535156 9.21875 -7.765625 8.1875 -8.015625 C 6.726562 -8.359375 5.546875 -8.703125 4.640625 -9.046875 C 3.742188 -9.398438 2.972656 -9.941406 2.328125 -10.671875 C 1.679688 -11.410156 1.359375 -12.410156 1.359375 -13.671875 C 1.359375 -14.722656 1.644531 -15.679688 2.21875 -16.546875 C 2.789062 -17.410156 3.65625 -18.097656 4.8125 -18.609375 C 5.96875 -19.117188 7.382812 -19.375 9.0625 -19.375 C 10.21875 -19.375 11.359375 -19.226562 12.484375 -18.9375 C 13.617188 -18.644531 14.59375 -18.222656 15.40625 -17.671875 L 14.296875 -14.921875 C 13.460938 -15.410156 12.585938 -15.78125 11.671875 -16.03125 C 10.765625 -16.289062 9.882812 -16.421875 9.03125 -16.421875 C 7.625 -16.421875 6.582031 -16.179688 5.90625 -15.703125 C 5.226562 -15.234375 4.890625 -14.609375 4.890625 -13.828125 C 4.890625 -13.285156 5.082031 -12.835938 5.46875 -12.484375 C 5.863281 -12.140625 6.359375 -11.867188 6.953125 -11.671875 C 7.554688 -11.472656 8.375 -11.25 9.40625 -11 C 10.832031 -10.664062 12 -10.320312 12.90625 -9.96875 C 13.8125 -9.613281 14.585938 -9.070312 15.234375 -8.34375 C 15.878906 -7.613281 16.203125 -6.632812 16.203125 -5.40625 C 16.203125 -4.34375 15.914062 -3.382812 15.34375 -2.53125 C 14.769531 -1.675781 13.898438 -0.992188 12.734375 -0.484375 C 11.578125 0.015625 10.160156 0.265625 8.484375 0.265625 Z M 8.484375 0.265625 "/></g></g></g><g fill="#00bf63" fill-opacity="1"><g transform="translate(162.983401, 25.819631)"><g><path d="M 8.484375 0.265625 C 7.015625 0.265625 5.59375 0.0546875 4.21875 -0.359375 C 2.84375 -0.773438 1.753906 -1.328125 0.953125 -2.015625 L 2.1875 -4.78125 C 2.96875 -4.15625 3.925781 -3.644531 5.0625 -3.25 C 6.195312 -2.863281 7.335938 -2.671875 8.484375 -2.671875 C 9.898438 -2.671875 10.957031 -2.894531 11.65625 -3.34375 C 12.363281 -3.800781 12.71875 -4.40625 12.71875 -5.15625 C 12.71875 -5.695312 12.519531 -6.144531 12.125 -6.5 C 11.738281 -6.851562 11.242188 -7.128906 10.640625 -7.328125 C 10.035156 -7.535156 9.21875 -7.765625 8.1875 -8.015625 C 6.726562 -8.359375 5.546875 -8.703125 4.640625 -9.046875 C 3.742188 -9.398438 2.972656 -9.941406 2.328125 -10.671875 C 1.679688 -11.410156 1.359375 -12.410156 1.359375 -13.671875 C 1.359375 -14.722656 1.644531 -15.679688 2.21875 -16.546875 C 2.789062 -17.410156 3.65625 -18.097656 4.8125 -18.609375 C 5.96875 -19.117188 7.382812 -19.375 9.0625 -19.375 C 10.21875 -19.375 11.359375 -19.226562 12.484375 -18.9375 C 13.617188 -18.644531 14.59375 -18.222656 15.40625 -17.671875 L 14.296875 -14.921875 C 13.460938 -15.410156 12.585938 -15.78125 11.671875 -16.03125 C 10.765625 -16.289062 9.882812 -16.421875 9.03125 -16.421875 C 7.625 -16.421875 6.582031 -16.179688 5.90625 -15.703125 C 5.226562 -15.234375 4.890625 -14.609375 4.890625 -13.828125 C 4.890625 -13.285156 5.082031 -12.835938 5.46875 -12.484375 C 5.863281 -12.140625 6.359375 -11.867188 6.953125 -11.671875 C 7.554688 -11.472656 8.375 -11.25 9.40625 -11 C 10.832031 -10.664062 12 -10.320312 12.90625 -9.96875 C 13.8125 -9.613281 14.585938 -9.070312 15.234375 -8.34375 C 15.878906 -7.613281 16.203125 -6.632812 16.203125 -5.40625 C 16.203125 -4.34375 15.914062 -3.382812 15.34375 -2.53125 C 14.769531 -1.675781 13.898438 -0.992188 12.734375 -0.484375 C 11.578125 0.015625 10.160156 0.265625 8.484375 0.265625 Z M 8.484375 0.265625 "/></g></g></g><g fill="#00bf63" fill-opacity="1"><g transform="translate(196.648902, 25.819631)"><g><path d="M 2.5625 -19.09375 L 6.109375 -19.09375 L 6.109375 0 L 2.5625 0 Z M 2.5625 -19.09375 "/></g></g></g><g fill="#00bf63" fill-opacity="1"><g transform="translate(221.859283, 25.819631)"><g><path d="M 11.484375 0.265625 C 9.535156 0.265625 7.78125 -0.15625 6.21875 -1 C 4.65625 -1.84375 3.425781 -3.015625 2.53125 -4.515625 C 1.644531 -6.015625 1.203125 -7.691406 1.203125 -9.546875 C 1.203125 -11.398438 1.644531 -13.078125 2.53125 -14.578125 C 3.425781 -16.078125 4.65625 -17.25 6.21875 -18.09375 C 7.78125 -18.945312 9.535156 -19.375 11.484375 -19.375 C 13.429688 -19.375 15.1875 -18.945312 16.75 -18.09375 C 18.3125 -17.25 19.535156 -16.082031 20.421875 -14.59375 C 21.316406 -13.101562 21.765625 -11.421875 21.765625 -9.546875 C 21.765625 -7.671875 21.316406 -5.988281 20.421875 -4.5 C 19.535156 -3.007812 18.3125 -1.84375 16.75 -1 C 15.1875 -0.15625 13.429688 0.265625 11.484375 0.265625 Z M 11.484375 -2.84375 C 12.753906 -2.84375 13.898438 -3.128906 14.921875 -3.703125 C 15.941406 -4.273438 16.742188 -5.070312 17.328125 -6.09375 C 17.910156 -7.125 18.203125 -8.273438 18.203125 -9.546875 C 18.203125 -10.816406 17.910156 -11.96875 17.328125 -13 C 16.742188 -14.03125 15.941406 -14.832031 14.921875 -15.40625 C 13.898438 -15.976562 12.753906 -16.265625 11.484375 -16.265625 C 10.210938 -16.265625 9.066406 -15.976562 8.046875 -15.40625 C 7.023438 -14.832031 6.222656 -14.03125 5.640625 -13 C 5.066406 -11.96875 4.78125 -10.816406 4.78125 -9.546875 C 4.78125 -8.273438 5.066406 -7.125 5.640625 -6.09375 C 6.222656 -5.070312 7.023438 -4.273438 8.046875 -3.703125 C 9.066406 -3.128906 10.210938 -2.84375 11.484375 -2.84375 Z M 11.484375 -2.84375 "/></g></g></g><g fill="#00bf63" fill-opacity="1"><g transform="translate(261.334272, 25.819631)"><g><path d="M 19.53125 -19.09375 L 19.53125 0 L 16.609375 0 L 6.078125 -12.9375 L 6.078125 0 L 2.5625 0 L 2.5625 -19.09375 L 5.484375 -19.09375 L 16.015625 -6.171875 L 16.015625 -19.09375 Z M 19.53125 -19.09375 "/></g></g></g><g fill="#ff751f" fill-opacity="1"><g transform="translate(1.483835, 54.723889)"><g><path d="M 13.328125 -12.875 L 13.328125 0 L 10.359375 0 L 10.359375 -5.28125 L 4.5 -5.28125 L 4.5 0 L 1.53125 0 L 1.53125 -12.875 L 4.5 -12.875 L 4.5 -7.796875 L 10.359375 -7.796875 L 10.359375 -12.875 Z M 13.328125 -12.875 "/></g></g></g><g fill="#ff751f" fill-opacity="1"><g transform="translate(19.185039, 54.723889)"><g><path d="M 7.765625 0.21875 C 6.421875 0.21875 5.210938 -0.0664062 4.140625 -0.640625 C 3.066406 -1.222656 2.226562 -2.019531 1.625 -3.03125 C 1.019531 -4.039062 0.71875 -5.175781 0.71875 -6.4375 C 0.71875 -7.695312 1.019531 -8.832031 1.625 -9.84375 C 2.226562 -10.851562 3.066406 -11.644531 4.140625 -12.21875 C 5.210938 -12.800781 6.421875 -13.09375 7.765625 -13.09375 C 9.097656 -13.09375 10.296875 -12.800781 11.359375 -12.21875 C 12.429688 -11.644531 13.269531 -10.851562 13.875 -9.84375 C 14.488281 -8.832031 14.796875 -7.695312 14.796875 -6.4375 C 14.796875 -5.175781 14.488281 -4.039062 13.875 -3.03125 C 13.269531 -2.019531 12.429688 -1.222656 11.359375 -0.640625 C 10.296875 -0.0664062 9.097656 0.21875 7.765625 0.21875 Z M 7.765625 -2.3125 C 8.523438 -2.3125 9.207031 -2.484375 9.8125 -2.828125 C 10.425781 -3.179688 10.90625 -3.671875 11.25 -4.296875 C 11.601562 -4.921875 11.78125 -5.632812 11.78125 -6.4375 C 11.78125 -7.226562 11.601562 -7.9375 11.25 -8.5625 C 10.90625 -9.195312 10.425781 -9.6875 9.8125 -10.03125 C 9.207031 -10.382812 8.523438 -10.5625 7.765625 -10.5625 C 7.003906 -10.5625 6.316406 -10.382812 5.703125 -10.03125 C 5.085938 -9.6875 4.601562 -9.195312 4.25 -8.5625 C 3.90625 -7.9375 3.734375 -7.226562 3.734375 -6.4375 C 3.734375 -5.632812 3.90625 -4.921875 4.25 -4.296875 C 4.601562 -3.671875 5.085938 -3.179688 5.703125 -2.828125 C 6.316406 -2.484375 7.003906 -2.3125 7.765625 -2.3125 Z M 7.765625 -2.3125 "/></g></g></g><g fill="#ff751f" fill-opacity="1"><g transform="translate(37.547905, 54.723889)"><g><path d="M 1.53125 -12.875 L 4.5 -12.875 L 4.5 -2.421875 L 10.953125 -2.421875 L 10.953125 0 L 1.53125 0 Z M 1.53125 -12.875 "/></g></g></g><g fill="#ff751f" fill-opacity="1"><g transform="translate(51.499698, 54.723889)"><g><path d="M 1.53125 -12.875 L 4.5 -12.875 L 4.5 0 L 1.53125 0 Z M 1.53125 -12.875 "/></g></g></g><g fill="#ff751f" fill-opacity="1"><g transform="translate(60.378777, 54.723889)"><g><path d="M 5.75 0.21875 C 4.738281 0.21875 3.753906 0.0820312 2.796875 -0.1875 C 1.847656 -0.46875 1.085938 -0.828125 0.515625 -1.265625 L 1.53125 -3.515625 C 2.082031 -3.109375 2.738281 -2.78125 3.5 -2.53125 C 4.257812 -2.289062 5.019531 -2.171875 5.78125 -2.171875 C 6.625 -2.171875 7.242188 -2.296875 7.640625 -2.546875 C 8.046875 -2.796875 8.25 -3.128906 8.25 -3.546875 C 8.25 -3.859375 8.128906 -4.113281 7.890625 -4.3125 C 7.660156 -4.507812 7.359375 -4.671875 6.984375 -4.796875 C 6.609375 -4.921875 6.101562 -5.054688 5.46875 -5.203125 C 4.476562 -5.429688 3.671875 -5.660156 3.046875 -5.890625 C 2.421875 -6.128906 1.882812 -6.503906 1.4375 -7.015625 C 0.988281 -7.535156 0.765625 -8.222656 0.765625 -9.078125 C 0.765625 -9.828125 0.96875 -10.503906 1.375 -11.109375 C 1.78125 -11.722656 2.390625 -12.207031 3.203125 -12.5625 C 4.023438 -12.914062 5.023438 -13.09375 6.203125 -13.09375 C 7.023438 -13.09375 7.828125 -12.992188 8.609375 -12.796875 C 9.390625 -12.597656 10.078125 -12.316406 10.671875 -11.953125 L 9.75 -9.6875 C 8.5625 -10.363281 7.367188 -10.703125 6.171875 -10.703125 C 5.335938 -10.703125 4.722656 -10.566406 4.328125 -10.296875 C 3.929688 -10.023438 3.734375 -9.671875 3.734375 -9.234375 C 3.734375 -8.785156 3.960938 -8.453125 4.421875 -8.234375 C 4.878906 -8.023438 5.582031 -7.816406 6.53125 -7.609375 C 7.507812 -7.378906 8.3125 -7.144531 8.9375 -6.90625 C 9.5625 -6.675781 10.097656 -6.3125 10.546875 -5.8125 C 10.992188 -5.3125 11.21875 -4.628906 11.21875 -3.765625 C 11.21875 -3.035156 11.007812 -2.363281 10.59375 -1.75 C 10.1875 -1.144531 9.570312 -0.664062 8.75 -0.3125 C 7.925781 0.0390625 6.925781 0.21875 5.75 0.21875 Z M 5.75 0.21875 "/></g></g></g><g fill="#ff751f" fill-opacity="1"><g transform="translate(74.955472, 54.723889)"><g><path d="M 4.1875 -10.453125 L 0.078125 -10.453125 L 0.078125 -12.875 L 11.296875 -12.875 L 11.296875 -10.453125 L 7.171875 -10.453125 L 7.171875 0 L 4.1875 0 Z M 4.1875 -10.453125 "/></g></g></g><g fill="#ff751f" fill-opacity="1"><g transform="translate(89.164586, 54.723889)"><g><path d="M 1.53125 -12.875 L 4.5 -12.875 L 4.5 0 L 1.53125 0 Z M 1.53125 -12.875 "/></g></g></g><g fill="#ff751f" fill-opacity="1"><g transform="translate(98.043664, 54.723889)"><g><path d="M 7.6875 0.21875 C 6.375 0.21875 5.1875 -0.0625 4.125 -0.625 C 3.0625 -1.195312 2.226562 -1.988281 1.625 -3 C 1.019531 -4.019531 0.71875 -5.164062 0.71875 -6.4375 C 0.71875 -7.707031 1.019531 -8.847656 1.625 -9.859375 C 2.226562 -10.878906 3.0625 -11.671875 4.125 -12.234375 C 5.1875 -12.804688 6.378906 -13.09375 7.703125 -13.09375 C 8.816406 -13.09375 9.820312 -12.894531 10.71875 -12.5 C 11.625 -12.113281 12.382812 -11.550781 13 -10.8125 L 11.09375 -9.046875 C 10.21875 -10.054688 9.140625 -10.5625 7.859375 -10.5625 C 7.054688 -10.5625 6.34375 -10.382812 5.71875 -10.03125 C 5.09375 -9.6875 4.601562 -9.195312 4.25 -8.5625 C 3.90625 -7.9375 3.734375 -7.226562 3.734375 -6.4375 C 3.734375 -5.632812 3.90625 -4.921875 4.25 -4.296875 C 4.601562 -3.671875 5.09375 -3.179688 5.71875 -2.828125 C 6.34375 -2.484375 7.054688 -2.3125 7.859375 -2.3125 C 9.140625 -2.3125 10.21875 -2.820312 11.09375 -3.84375 L 13 -2.078125 C 12.382812 -1.328125 11.625 -0.753906 10.71875 -0.359375 C 9.8125 0.0234375 8.800781 0.21875 7.6875 0.21875 Z M 7.6875 0.21875 "/></g></g></g><g fill="#ff751f" fill-opacity="1"><g transform="translate(114.366414, 54.723889)"><g/></g></g><g fill="#ff751f" fill-opacity="1"><g transform="translate(122.41842, 54.723889)"><g><path d="M 10.21875 -6.640625 L 12.953125 -6.640625 L 12.953125 -1.421875 C 12.253906 -0.890625 11.441406 -0.484375 10.515625 -0.203125 C 9.597656 0.078125 8.675781 0.21875 7.75 0.21875 C 6.40625 0.21875 5.195312 -0.0625 4.125 -0.625 C 3.0625 -1.195312 2.226562 -1.988281 1.625 -3 C 1.019531 -4.019531 0.71875 -5.164062 0.71875 -6.4375 C 0.71875 -7.707031 1.019531 -8.847656 1.625 -9.859375 C 2.226562 -10.878906 3.070312 -11.671875 4.15625 -12.234375 C 5.238281 -12.804688 6.453125 -13.09375 7.796875 -13.09375 C 8.921875 -13.09375 9.941406 -12.898438 10.859375 -12.515625 C 11.785156 -12.140625 12.5625 -11.59375 13.1875 -10.875 L 11.28125 -9.109375 C 10.351562 -10.078125 9.238281 -10.5625 7.9375 -10.5625 C 7.125 -10.5625 6.394531 -10.390625 5.75 -10.046875 C 5.113281 -9.703125 4.617188 -9.21875 4.265625 -8.59375 C 3.910156 -7.96875 3.734375 -7.25 3.734375 -6.4375 C 3.734375 -5.632812 3.910156 -4.921875 4.265625 -4.296875 C 4.617188 -3.671875 5.109375 -3.179688 5.734375 -2.828125 C 6.367188 -2.484375 7.09375 -2.3125 7.90625 -2.3125 C 8.769531 -2.3125 9.539062 -2.5 10.21875 -2.875 Z M 10.21875 -6.640625 "/></g></g></g><g fill="#ff751f" fill-opacity="1"><g transform="translate(139.439572, 54.723889)"><g><path d="M 1.53125 -12.875 L 4.5 -12.875 L 4.5 -2.421875 L 10.953125 -2.421875 L 10.953125 0 L 1.53125 0 Z M 1.53125 -12.875 "/></g></g></g><g fill="#ff751f" fill-opacity="1"><g transform="translate(153.391366, 54.723889)"><g><path d="M 7.765625 0.21875 C 6.421875 0.21875 5.210938 -0.0664062 4.140625 -0.640625 C 3.066406 -1.222656 2.226562 -2.019531 1.625 -3.03125 C 1.019531 -4.039062 0.71875 -5.175781 0.71875 -6.4375 C 0.71875 -7.695312 1.019531 -8.832031 1.625 -9.84375 C 2.226562 -10.851562 3.066406 -11.644531 4.140625 -12.21875 C 5.210938 -12.800781 6.421875 -13.09375 7.765625 -13.09375 C 9.097656 -13.09375 10.296875 -12.800781 11.359375 -12.21875 C 12.429688 -11.644531 13.269531 -10.851562 13.875 -9.84375 C 14.488281 -8.832031 14.796875 -7.695312 14.796875 -6.4375 C 14.796875 -5.175781 14.488281 -4.039062 13.875 -3.03125 C 13.269531 -2.019531 12.429688 -1.222656 11.359375 -0.640625 C 10.296875 -0.0664062 9.097656 0.21875 7.765625 0.21875 Z M 7.765625 -2.3125 C 8.523438 -2.3125 9.207031 -2.484375 9.8125 -2.828125 C 10.425781 -3.179688 10.90625 -3.671875 11.25 -4.296875 C 11.601562 -4.921875 11.78125 -5.632812 11.78125 -6.4375 C 11.78125 -7.226562 11.601562 -7.9375 11.25 -8.5625 C 10.90625 -9.195312 10.425781 -9.6875 9.8125 -10.03125 C 9.207031 -10.382812 8.523438 -10.5625 7.765625 -10.5625 C 7.003906 -10.5625 6.316406 -10.382812 5.703125 -10.03125 C 5.085938 -9.6875 4.601562 -9.195312 4.25 -8.5625 C 3.90625 -7.9375 3.734375 -7.226562 3.734375 -6.4375 C 3.734375 -5.632812 3.90625 -4.921875 4.25 -4.296875 C 4.601562 -3.671875 5.085938 -3.179688 5.703125 -2.828125 C 6.316406 -2.484375 7.003906 -2.3125 7.765625 -2.3125 Z M 7.765625 -2.3125 "/></g></g></g><g fill="#ff751f" fill-opacity="1"><g transform="translate(171.754232, 54.723889)"><g><path d="M 10.984375 -6.6875 C 11.710938 -6.457031 12.285156 -6.066406 12.703125 -5.515625 C 13.117188 -4.972656 13.328125 -4.304688 13.328125 -3.515625 C 13.328125 -2.390625 12.890625 -1.519531 12.015625 -0.90625 C 11.140625 -0.300781 9.863281 0 8.1875 0 L 1.53125 0 L 1.53125 -12.875 L 7.8125 -12.875 C 9.382812 -12.875 10.585938 -12.570312 11.421875 -11.96875 C 12.265625 -11.375 12.6875 -10.5625 12.6875 -9.53125 C 12.6875 -8.90625 12.535156 -8.34375 12.234375 -7.84375 C 11.929688 -7.351562 11.515625 -6.96875 10.984375 -6.6875 Z M 4.484375 -10.625 L 4.484375 -7.59375 L 7.453125 -7.59375 C 8.179688 -7.59375 8.734375 -7.722656 9.109375 -7.984375 C 9.492188 -8.242188 9.6875 -8.625 9.6875 -9.125 C 9.6875 -9.625 9.492188 -10 9.109375 -10.25 C 8.734375 -10.5 8.179688 -10.625 7.453125 -10.625 Z M 7.96875 -2.25 C 8.75 -2.25 9.335938 -2.375 9.734375 -2.625 C 10.128906 -2.882812 10.328125 -3.285156 10.328125 -3.828125 C 10.328125 -4.890625 9.539062 -5.421875 7.96875 -5.421875 L 4.484375 -5.421875 L 4.484375 -2.25 Z M 7.96875 -2.25 "/></g></g></g><g fill="#ff751f" fill-opacity="1"><g transform="translate(188.665124, 54.723889)"><g><path d="M 10 -2.765625 L 4.03125 -2.765625 L 2.890625 0 L -0.171875 0 L 5.578125 -12.875 L 8.515625 -12.875 L 14.265625 0 L 11.140625 0 Z M 9.0625 -5.015625 L 7.03125 -9.953125 L 4.984375 -5.015625 Z M 9.0625 -5.015625 "/></g></g></g><g fill="#ff751f" fill-opacity="1"><g transform="translate(205.594386, 54.723889)"><g><path d="M 1.53125 -12.875 L 4.5 -12.875 L 4.5 -2.421875 L 10.953125 -2.421875 L 10.953125 0 L 1.53125 0 Z M 1.53125 -12.875 "/></g></g></g><g fill="#ff751f" fill-opacity="1"><g transform="translate(219.546179, 54.723889)"><g/></g></g><g fill="#ff751f" fill-opacity="1"><g transform="translate(227.598185, 54.723889)"><g><path d="M 7.765625 0.21875 C 6.421875 0.21875 5.210938 -0.0664062 4.140625 -0.640625 C 3.066406 -1.222656 2.226562 -2.019531 1.625 -3.03125 C 1.019531 -4.039062 0.71875 -5.175781 0.71875 -6.4375 C 0.71875 -7.695312 1.019531 -8.832031 1.625 -9.84375 C 2.226562 -10.851562 3.066406 -11.644531 4.140625 -12.21875 C 5.210938 -12.800781 6.421875 -13.09375 7.765625 -13.09375 C 9.097656 -13.09375 10.296875 -12.800781 11.359375 -12.21875 C 12.429688 -11.644531 13.269531 -10.851562 13.875 -9.84375 C 14.488281 -8.832031 14.796875 -7.695312 14.796875 -6.4375 C 14.796875 -5.175781 14.488281 -4.039062 13.875 -3.03125 C 13.269531 -2.019531 12.429688 -1.222656 11.359375 -0.640625 C 10.296875 -0.0664062 9.097656 0.21875 7.765625 0.21875 Z M 7.765625 -2.3125 C 8.523438 -2.3125 9.207031 -2.484375 9.8125 -2.828125 C 10.425781 -3.179688 10.90625 -3.671875 11.25 -4.296875 C 11.601562 -4.921875 11.78125 -5.632812 11.78125 -6.4375 C 11.78125 -7.226562 11.601562 -7.9375 11.25 -8.5625 C 10.90625 -9.195312 10.425781 -9.6875 9.8125 -10.03125 C 9.207031 -10.382812 8.523438 -10.5625 7.765625 -10.5625 C 7.003906 -10.5625 6.316406 -10.382812 5.703125 -10.03125 C 5.085938 -9.6875 4.601562 -9.195312 4.25 -8.5625 C 3.90625 -7.9375 3.734375 -7.226562 3.734375 -6.4375 C 3.734375 -5.632812 3.90625 -4.921875 4.25 -4.296875 C 4.601562 -3.671875 5.085938 -3.179688 5.703125 -2.828125 C 6.316406 -2.484375 7.003906 -2.3125 7.765625 -2.3125 Z M 7.765625 -2.3125 "/></g></g></g><g fill="#ff751f" fill-opacity="1"><g transform="translate(245.961051, 54.723889)"><g><path d="M 7.25 0.21875 C 5.40625 0.21875 3.972656 -0.285156 2.953125 -1.296875 C 1.929688 -2.316406 1.421875 -3.773438 1.421875 -5.671875 L 1.421875 -12.875 L 4.390625 -12.875 L 4.390625 -5.78125 C 4.390625 -3.46875 5.347656 -2.3125 7.265625 -2.3125 C 8.191406 -2.3125 8.898438 -2.585938 9.390625 -3.140625 C 9.890625 -3.703125 10.140625 -4.582031 10.140625 -5.78125 L 10.140625 -12.875 L 13.078125 -12.875 L 13.078125 -5.671875 C 13.078125 -3.773438 12.5625 -2.316406 11.53125 -1.296875 C 10.507812 -0.285156 9.082031 0.21875 7.25 0.21875 Z M 7.25 0.21875 "/></g></g></g><g fill="#ff751f" fill-opacity="1"><g transform="translate(263.294655, 54.723889)"><g><path d="M 4.1875 -10.453125 L 0.078125 -10.453125 L 0.078125 -12.875 L 11.296875 -12.875 L 11.296875 -10.453125 L 7.171875 -10.453125 L 7.171875 0 L 4.1875 0 Z M 4.1875 -10.453125 "/></g></g></g><g fill="#ff751f" fill-opacity="1"><g transform="translate(277.503769, 54.723889)"><g><path d="M 9.734375 0 L 7.25 -3.59375 L 4.5 -3.59375 L 4.5 0 L 1.53125 0 L 1.53125 -12.875 L 7.09375 -12.875 C 8.238281 -12.875 9.226562 -12.679688 10.0625 -12.296875 C 10.90625 -11.921875 11.550781 -11.382812 12 -10.6875 C 12.457031 -9.988281 12.6875 -9.160156 12.6875 -8.203125 C 12.6875 -7.242188 12.457031 -6.414062 12 -5.71875 C 11.539062 -5.03125 10.890625 -4.503906 10.046875 -4.140625 L 12.921875 0 Z M 9.671875 -8.203125 C 9.671875 -8.921875 9.4375 -9.472656 8.96875 -9.859375 C 8.507812 -10.253906 7.832031 -10.453125 6.9375 -10.453125 L 4.5 -10.453125 L 4.5 -5.953125 L 6.9375 -5.953125 C 7.832031 -5.953125 8.507812 -6.148438 8.96875 -6.546875 C 9.4375 -6.941406 9.671875 -7.492188 9.671875 -8.203125 Z M 9.671875 -8.203125 "/></g></g></g><g fill="#ff751f" fill-opacity="1"><g transform="translate(293.863279, 54.723889)"><g><path d="M 11.5 -2.390625 L 11.5 0 L 1.53125 0 L 1.53125 -12.875 L 11.25 -12.875 L 11.25 -10.484375 L 4.484375 -10.484375 L 4.484375 -7.6875 L 10.46875 -7.6875 L 10.46875 -5.375 L 4.484375 -5.375 L 4.484375 -2.390625 Z M 11.5 -2.390625 "/></g></g></g><g fill="#ff751f" fill-opacity="1"><g transform="translate(309.046505, 54.723889)"><g><path d="M 10 -2.765625 L 4.03125 -2.765625 L 2.890625 0 L -0.171875 0 L 5.578125 -12.875 L 8.515625 -12.875 L 14.265625 0 L 11.140625 0 Z M 9.0625 -5.015625 L 7.03125 -9.953125 L 4.984375 -5.015625 Z M 9.0625 -5.015625 "/></g></g></g><g fill="#ff751f" fill-opacity="1"><g transform="translate(325.975768, 54.723889)"><g><path d="M 7.6875 0.21875 C 6.375 0.21875 5.1875 -0.0625 4.125 -0.625 C 3.0625 -1.195312 2.226562 -1.988281 1.625 -3 C 1.019531 -4.019531 0.71875 -5.164062 0.71875 -6.4375 C 0.71875 -7.707031 1.019531 -8.847656 1.625 -9.859375 C 2.226562 -10.878906 3.0625 -11.671875 4.125 -12.234375 C 5.1875 -12.804688 6.378906 -13.09375 7.703125 -13.09375 C 8.816406 -13.09375 9.820312 -12.894531 10.71875 -12.5 C 11.625 -12.113281 12.382812 -11.550781 13 -10.8125 L 11.09375 -9.046875 C 10.21875 -10.054688 9.140625 -10.5625 7.859375 -10.5625 C 7.054688 -10.5625 6.34375 -10.382812 5.71875 -10.03125 C 5.09375 -9.6875 4.601562 -9.195312 4.25 -8.5625 C 3.90625 -7.9375 3.734375 -7.226562 3.734375 -6.4375 C 3.734375 -5.632812 3.90625 -4.921875 4.25 -4.296875 C 4.601562 -3.671875 5.09375 -3.179688 5.71875 -2.828125 C 6.34375 -2.484375 7.054688 -2.3125 7.859375 -2.3125 C 9.140625 -2.3125 10.21875 -2.820312 11.09375 -3.84375 L 13 -2.078125 C 12.382812 -1.328125 11.625 -0.753906 10.71875 -0.359375 C 9.8125 0.0234375 8.800781 0.21875 7.6875 0.21875 Z M 7.6875 0.21875 "/></g></g></g><g fill="#ff751f" fill-opacity="1"><g transform="translate(342.298537, 54.723889)"><g><path d="M 13.328125 -12.875 L 13.328125 0 L 10.359375 0 L 10.359375 -5.28125 L 4.5 -5.28125 L 4.5 0 L 1.53125 0 L 1.53125 -12.875 L 4.5 -12.875 L 4.5 -7.796875 L 10.359375 -7.796875 L 10.359375 -12.875 Z M 13.328125 -12.875 "/></g></g></g></g></g><g transform="matrix(1, 0, 0, 1, 181, 246)"><g clip-path="url(#f6424d4e67)"><g fill="#1c9ae1" fill-opacity="1"><g transform="translate(1.131077, 57.713696)"><g><path d="M 19.546875 -15.90625 L 14.109375 -10.234375 L 14.109375 0 L 4.796875 0 L 4.796875 -40.484375 L 14.109375 -40.484375 L 14.109375 -21.5625 L 32.03125 -40.484375 L 42.453125 -40.484375 L 25.671875 -22.4375 L 43.421875 0 L 32.5 0 Z M 19.546875 -15.90625 "/></g></g></g><g fill="#1c9ae1" fill-opacity="1"><g transform="translate(40.908274, 57.713696)"><g><path d="M 4.796875 -40.484375 L 14.171875 -40.484375 L 14.171875 0 L 4.796875 0 Z M 4.796875 -40.484375 "/></g></g></g><g fill="#1c9ae1" fill-opacity="1"><g transform="translate(56.864868, 57.713696)"><g><path d="M 4.796875 -40.484375 L 23.1875 -40.484375 C 27.582031 -40.484375 31.46875 -39.644531 34.84375 -37.96875 C 38.21875 -36.289062 40.835938 -33.925781 42.703125 -30.875 C 44.578125 -27.832031 45.515625 -24.285156 45.515625 -20.234375 C 45.515625 -16.191406 44.578125 -12.644531 42.703125 -9.59375 C 40.835938 -6.550781 38.21875 -4.191406 34.84375 -2.515625 C 31.46875 -0.835938 27.582031 0 23.1875 0 L 4.796875 0 Z M 22.71875 -7.6875 C 26.769531 -7.6875 30 -8.8125 32.40625 -11.0625 C 34.820312 -13.320312 36.03125 -16.378906 36.03125 -20.234375 C 36.03125 -24.085938 34.820312 -27.140625 32.40625 -29.390625 C 30 -31.648438 26.769531 -32.78125 22.71875 -32.78125 L 14.171875 -32.78125 L 14.171875 -7.6875 Z M 22.71875 -7.6875 "/></g></g></g><g fill="#1c9ae1" fill-opacity="1"><g transform="translate(101.614351, 57.713696)"><g><path d="M 31.453125 -8.671875 L 12.671875 -8.671875 L 9.078125 0 L -0.515625 0 L 17.515625 -40.484375 L 26.78125 -40.484375 L 44.875 0 L 35.046875 0 Z M 28.515625 -15.78125 L 22.09375 -31.28125 L 15.671875 -15.78125 Z M 28.515625 -15.78125 "/></g></g></g><g fill="#1c9ae1" fill-opacity="1"><g transform="translate(142.894815, 57.713696)"><g><path d="M 41.921875 -40.484375 L 41.921875 0 L 34.234375 0 L 14.046875 -24.578125 L 14.046875 0 L 4.796875 0 L 4.796875 -40.484375 L 12.546875 -40.484375 L 32.671875 -15.90625 L 32.671875 -40.484375 Z M 41.921875 -40.484375 "/></g></g></g></g></g></svg>